<svg viewBox="0 0 293.0874 472.9743" fill="none" xmlns="http://www.w3.org/2000/svg" xmlns:xlink="http://www.w3.org/1999/xlink" id="1cd9bb60" x="0" y="0"><g id="Project Showcase - Energy" data-node-id="2437:9161" clip-path="url(#clip0_2437_9161)"><g id="RPE3/Experiment #3_2" data-node-id="2437:69277"><g clip-path="url(#clip3_2437_9161)"><path id="Rectangle 1_2" data-node-id="2437:69278" d="M293.52,0.5023l2.2,472.672l-296.07,1.38l-2.2,-472.67z" fill="#0D1240"/><path id="Line 98" data-node-id="2437:69282" opacity="0.8" d="M26.3,36.3493v45.09" stroke="#A9AEB1" stroke-width="0.751506" stroke-dasharray="2.25 1.5"/><path id="Line 99_2" data-node-id="2437:69283" opacity="0.8" d="M26.3,1.7803v16.533" stroke="#A9AEB1" stroke-width="0.751506" stroke-dasharray="2.25 1.5"/><path id="Vector_46" data-node-id="2437:69284" d="M25.74,39.7313c-6.75,0 -12.21,-5.468 -12.21,-12.212c0,-6.745 5.46,-12.212 12.21,-12.212c6.74,0 12.21,5.467 12.21,12.212c0,6.744 -5.47,12.212 -12.21,12.212zM24.52,32.4043l8.63,-8.635l-1.72,-1.727l-6.91,6.908l-3.45,-3.455l-1.73,1.727z" fill="#F6CF57"/><path id="Rectangle 696_2" data-node-id="2437:69285" d="M263.77,81.8723c7.88,-0.037 14.3,6.326 14.34,14.212l1.43,307.17c0.03,4.99 -3.99,9.04 -8.97,9.06l-244.99,1.15c-4.98,0.02 -9.04,-4 -9.06,-8.98l-1.5,-321.451z" fill="white"/><g id="Symbols" data-node-id="2437:69286" opacity="0.25">
<g id="Scene/Home" data-node-id="2437:69287">
<g id="Plant" data-node-id="2437:69288">
<g id="Succulents" data-node-id="2437:69289">
<path id="Thi-Succs!" data-node-id="2437:69290" fill-rule="evenodd" clip-rule="evenodd" d="M23.44,259.6733c5.4,12.81 14.57,21.709 19.43,35.028c2.88,7.899 4.09,16.486 4.16,25.282c0.04,4.777 -0.05,9.558 -0.07,14.335c-0.02,4.659 -0.15,9.288 -0.54,13.917c-0.4,4.654 -0.85,9.249 -1.04,13.939c-0.16,3.64 -0.23,7.89 -1.46,11.22c-0.99,2.64 -3.49,3.03 -4.16,-0.18c-0.36,-1.78 -0.32,-3.78 -0.28,-5.61c0.05,-2.35 0.19,-4.7 0.26,-7.06c0.28,-9.435 -0.08,-18.876 0.11,-28.319c0.18,-9.227 1.37,-18.443 0.06,-27.608c-1.09,-7.568 -3.84,-14.067 -7.01,-20.298c-3.05,-5.994 -6.37,-11.843 -8.43,-18.661c-0.59,-1.958 -1.05,-3.987 -1.26,-6.093c0.09,-0.045 0.17,-0.008 0.23,0.108z" fill="#C1DEE2"/>
<path id="Thi-Succs!_2" data-node-id="2437:69291" fill-rule="evenodd" clip-rule="evenodd" d="M21.97,284.9443c1.07,0.771 1.66,1.898 2.39,3.011c0.9,1.383 1.95,2.632 2.85,4.016c1.87,2.886 3.52,5.948 5.23,8.951c3.24,5.699 5.7,11.773 6.92,18.367c1.26,6.833 1.6,13.886 2.13,20.821c0.56,7.35 1.13,14.754 1.2,22.134c0.04,3.3 0.22,6.81 -0.18,10.1c-0.25,2.04 -1.17,3.78 -3.25,3.76c-4.43,-0.03 -6.5,-4.92 -7.37,-8.93c-1.28,-5.91 -1.53,-12.185 -1.33,-18.226c0.24,-7.284 1.51,-14.459 2.06,-21.715c0.58,-7.682 0.25,-15.227 -2.39,-22.46c-1.34,-3.655 -2.89,-7.222 -4.28,-10.853c-0.6,-1.546 -1.08,-3.134 -1.88,-4.573c-0.89,-1.601 -2,-3.055 -2.7,-4.779c0.2,0.125 0.4,0.251 0.6,0.376z" fill="#89C5CC"/>
<path id="Thi-Succs!_3" data-node-id="2437:69292" fill-rule="evenodd" clip-rule="evenodd" d="M72.91,269.6273c0.14,-0.106 0.27,-0.211 0.41,-0.316c-0.39,1.643 -1.1,2.978 -1.64,4.48c-0.48,1.35 -0.73,2.878 -1.06,4.354c-0.76,3.467 -1.65,6.856 -2.37,10.352c-1.44,6.919 -1.16,14.373 -0.22,22.049c0.88,7.25 2.29,14.49 2.96,21.74c0.55,6.012 0.79,12.211 0.26,17.947c-0.36,3.896 -1.54,8.551 -4.75,8.151c-1.51,-0.18 -2.3,-1.999 -2.62,-4.05c-0.51,-3.295 -0.61,-6.759 -0.81,-10.035c-0.45,-7.312 -0.54,-14.601 -0.62,-21.838c-0.09,-6.828 -0.31,-13.792 0.14,-20.448c0.44,-6.422 1.82,-12.21 3.79,-17.55c1.04,-2.813 2.03,-5.692 3.2,-8.373c0.55,-1.286 1.24,-2.423 1.8,-3.708c0.45,-1.034 0.8,-2.094 1.53,-2.755z" fill="#C1DEE2"/>
<path id="Thi-Succs!_4" data-node-id="2437:69293" fill-rule="evenodd" clip-rule="evenodd" d="M23.33,306.1113c0.59,-0.98 1.87,2.253 2.07,2.66c-0.08,-0.203 -0.17,-0.405 -0.25,-0.606c1.16,1.927 2.22,3.933 2.88,6.143c0.66,2.188 1.22,4.42 1.83,6.624c1.15,4.134 2.64,8.15 3.68,12.322c1.01,4.064 1.27,8.06 1.02,12.264c-0.25,4.37 -0.41,8.807 -0.11,13.176c0.14,2.08 0.82,4.03 1.29,6.04c0.46,2.01 0.83,4.04 1.38,6.03c0.12,-0.26 0.14,0.6 0.14,0.67c0,0.49 -0.07,0.91 -0.23,1.38c-0.41,1.21 -1.18,2.24 -2.35,2.57c-2.11,0.6 -4.07,-1.31 -4.75,-3.34c-0.98,-2.91 -1.52,-6.12 -1.99,-9.18c-0.42,-2.8 -0.52,-5.62 -0.4,-8.457c0.25,-5.602 1.27,-11.13 1.54,-16.73c0.3,-6.097 -0.91,-11.825 -1.92,-17.76c-0.49,-2.859 -0.95,-5.692 -1.9,-8.416c-0.39,-1.103 -0.89,-2.077 -1.41,-3.096c-0.3,-0.579 -0.91,-1.613 -0.52,-2.294z" fill="#C1DEE2"/>
<path id="Thi-Succs!_5" data-node-id="2437:69294" fill-rule="evenodd" clip-rule="evenodd" d="M40.47,296.5883c-0.24,6.985 -0.66,13.916 -1.59,20.827c-0.95,7.052 -2.05,14.081 -2.96,21.139c-0.89,6.872 -1.83,13.857 -1.7,20.82c0.09,5.14 -0.76,13.82 4.94,16.35c5.78,2.56 7.02,-8.39 7.4,-12c0.73,-6.941 0.5,-13.951 0.14,-20.925c-0.36,-7.158 -0.96,-14.28 -1.71,-21.411c-0.84,-7.922 -1.49,-15.88 -2.01,-23.824c-0.26,-3.93 -0.33,-7.853 -0.26,-11.783c0.07,-3.709 -0.07,-7.456 -1.39,-10.978c-0.07,0.05 -0.14,0.101 -0.21,0.15" fill="#69A1AC"/>
<path id="Thi-Succs!_6" data-node-id="2437:69295" fill-rule="evenodd" clip-rule="evenodd" d="M70.31,318.7153c-1.04,1.512 -2.08,3.01 -3.07,4.612c-1.75,2.866 -3.34,6.054 -3.82,10.152c-1,8.576 -0.2,17.839 0,26.675c0.04,1.81 -0.19,3.56 0.52,5.28c0.65,1.56 1.86,2.75 3.01,2.74c2.46,-0.01 2.09,-6.04 2.09,-8.7c0.01,-4.651 -0.51,-9.35 -0.47,-13.998c0.05,-4.605 0.33,-9.222 0.99,-13.596c0.68,-4.426 1.67,-8.677 2.98,-12.643c0.18,-0.551 1.49,-4.805 0.25,-4.071" fill="#89C5CC"/>
<path id="Thi-Succs!_7" data-node-id="2437:69296" fill-rule="evenodd" clip-rule="evenodd" d="M59.42,272.9723c-1.62,0 -1.61,8.072 -1.66,9.109c-0.18,3.741 -0.13,7.483 -0.25,11.225c-0.24,8.167 -0.54,16.405 -1.77,24.477c-0.66,4.345 -1.43,8.671 -2.25,12.983c-0.83,4.325 -1.94,8.645 -2.48,13.025c-0.52,4.21 -0.23,8.503 -0.16,12.734c0.07,4.259 0.2,8.519 0.76,12.739c0.14,1.04 0.3,2.08 0.47,3.12c0.15,0.86 0.06,1.93 0.31,2.75c0.39,1.31 2.06,1.74 3.19,1.54c3.05,-0.56 5,-4.39 6.04,-7.18c1.33,-3.57 2.04,-7.44 2.74,-11.2c0.79,-4.264 1.25,-8.591 1.47,-12.929c0.44,-8.817 -0.13,-17.644 -0.76,-26.433c-0.35,-4.888 -0.76,-9.754 -1.38,-14.612c-0.62,-4.837 -1.42,-9.652 -1.93,-14.503c-0.38,-3.526 -0.75,-7.056 -0.99,-10.595c-0.06,-0.843 -0.11,-6.25 -1.35,-6.25z" fill="#69A1AC"/>
<path id="Thi-Succs!_8" data-node-id="2437:69297" fill-rule="evenodd" clip-rule="evenodd" d="M57.39,331.6433c-0.26,-8.474 -3.67,-45.697 -4.45,-55.944c-0.19,-2.565 -2.06,-13.245 -2.3,-16.153c-0.66,0.822 -0.61,13.615 -0.6,16.555c0.01,2.908 -0.35,5.767 -0.54,8.659c-0.19,2.951 -4.56,41.063 -5.12,43.898c-1.13,5.641 -1.89,11.43 -2.47,17.198c-0.56,5.622 -1.45,11.548 -0.69,17.208c0.18,1.3 0.45,2.58 0.9,3.77c0.49,1.29 0.82,2.49 1.21,3.84c0.63,2.18 1.76,4.09 3.51,4.98c3.57,1.85 5.49,-2.32 6.46,-5.96c1.56,-5.79 2.55,-11.69 3.02,-17.778c0.52,-6.737 1.28,-13.489 1.07,-20.273z" fill="#89C5CC"/>
</g>
<g id="Planter" data-node-id="2437:69298">
<path id="Vase" data-node-id="2437:69299" d="M73.93,356.5793h-53.17c-0.67,0 -1.22,0.545 -1.22,1.225v53.09c0,0.67 0.55,1.22 1.22,1.22h53.17c0.67,0 1.22,-0.55 1.22,-1.22v-53.09c0,-0.68 -0.55,-1.225 -1.22,-1.225z" fill="#E2E5EA"/>
</g>
</g>
</g>
</g><g id="Frame" data-node-id="2437:69300" opacity="0.15" clip-path="url(#clip4_2437_9161)">
<g id="Symbols_2" data-node-id="2437:69301">
<g id="Scene/Home_2" data-node-id="2437:69302">
<g id="Lamp" data-node-id="2437:69303">
<path id="Body" data-node-id="2437:69304" d="M205.16,125.2043l13.95,-13.963c2.35,-2.348 6.16,-2.349 8.51,-0.002v0.002l37.15,37.167c2.25,2.255 3.52,5.313 3.52,8.501v246.175" stroke="#CBCBCB" stroke-width="6.01205"/>
<path id="Lamp-Base" data-node-id="2437:69305" d="M287.83,402.3343h-39.83c-1.25,0 -2.26,1.01 -2.26,2.25v0.75c0,1.25 1.01,2.26 2.26,2.26h39.83c1.24,0 2.25,-1.01 2.25,-2.26v-0.75c0,-1.24 -1.01,-2.25 -2.25,-2.25z" fill="#AFB9C5"/>
<g id="Lamp-Top" data-node-id="2437:69306">
<path id="Lamp_2" data-node-id="2437:69307" fill-rule="evenodd" clip-rule="evenodd" d="M213.55,117.0123c9.69,9.684 9.69,25.387 0,35.072l-14.88,14.879l-35.07,-35.072l14.88,-14.879c9.68,-9.685 25.39,-9.685 35.07,0z" fill="#C5CFD6"/>
<path id="Lamp_3" data-node-id="2437:69308" d="M178.28,152.4773c9.68,9.685 19.08,15.989 20.99,14.082c1.9,-1.908 -4.4,-11.305 -14.09,-20.99c-9.68,-9.685 -19.08,-15.99 -20.99,-14.082c-1.9,1.907 4.4,11.305 14.09,20.99z" fill="#F2F2F2"/>
</g>
</g>
</g>
</g>
</g></g></g></g><defs><clipPath id="clip0_2437_9161">
<rect width="1440" height="11114" fill="white" x="-1104" y="-643.0257"/>
</clipPath><clipPath id="clip3_2437_9161">
<rect x="0" y="-26.02570000000003" width="293.087" height="499" rx="10" fill="white"/>
</clipPath><clipPath id="clip4_2437_9161">
<rect width="127.005" height="301.354" fill="white" transform="translate(163.07999999999993, 106.23929999999996)"/>
</clipPath></defs></svg>