<svg viewBox="0 0 285 503" fill="none" xmlns="http://www.w3.org/2000/svg" xmlns:xlink="http://www.w3.org/1999/xlink" id="55b9d664" x="0" y="0"><g id="Project Showcase - Energy" data-node-id="2437:9161" clip-path="url(#clip0_2437_9161)"><g id="RPE3/Experiment #3" data-node-id="2437:69171"><g clip-path="url(#clip2_2437_9161)"><path id="Vector" data-node-id="2437:69172" d="M-19.173,120.803c59.039,27.124 209.713,21.06 269.463,-5.74c31.59,-14.167 56.04,-35.767 51.47,-68.521c-1.61,-11.586 -6.03,-21.081 -12.46,-28.845c-26.03,-31.473 -132.54,-29.92 -138.455,-29.897c-3.833,0.014 -7.665,-0.025 -11.498,-0.118c-13.425,-0.328 -26.781,-1.3 -39.941,-2.908c-18.763,-2.29 -42.644,-3.395 -63.963,1.123c-3.623,0.764 -31.062,-1.901 -34.446,-0.811c-11.712,3.782 -12.758,0.041 -31.13,0.099c-5.745,6.684 -8.178,2.331 -10.166,12.748c-7.238,37.935 -18.2,104.803 21.126,122.87z" fill="#FED253"/><path id="Vector_2" data-node-id="2437:69173" d="M163.006,218.561c7.67,0 13.888,-6.382 13.888,-14.254c0,-7.873 -6.218,-14.254 -13.888,-14.254c-7.671,0 -13.889,6.381 -13.889,14.254c0,7.872 6.218,14.254 13.889,14.254z" fill="#78AA81"/><path id="Vector_3" data-node-id="2437:69174" opacity="0.2" d="M152.687,195.17c-1.314,3.065 -1.492,6.495 -0.503,9.679c0.99,3.183 3.082,5.913 5.904,7.7c2.823,1.786 6.19,2.515 9.501,2.054c3.311,-0.46 6.35,-2.079 8.574,-4.568c-0.803,1.873 -2.004,3.549 -3.521,4.912c-1.517,1.364 -3.313,2.382 -5.264,2.985c-1.951,0.602 -4.01,0.775 -6.035,0.506c-2.025,-0.27 -3.966,-0.975 -5.69,-2.067c-1.724,-1.091 -3.19,-2.544 -4.295,-4.256c-1.105,-1.712 -1.824,-3.644 -2.106,-5.661c-0.282,-2.016 -0.121,-4.07 0.472,-6.019c0.593,-1.948 1.604,-3.745 2.963,-5.265z" fill="black"/><path id="Vector_4" data-node-id="2437:69175" d="M163.012,204.67h0.039l0.692,40.203h-1.462z" fill="#3F3D56"/><path id="Vector_5" data-node-id="2437:69176" d="M134.5,192.244c15.745,0 28.508,-12.763 28.508,-28.507c0,-15.745 -12.763,-28.508 -28.508,-28.508c-15.744,0 -28.508,12.763 -28.508,28.508c0,15.744 12.764,28.507 28.508,28.507z" fill="#78AA81"/><path id="Vector_6" data-node-id="2437:69177" opacity="0.2" d="M113.229,144.73c-2.664,6.226 -3.026,13.194 -1.02,19.661c2.006,6.466 6.248,12.01 11.968,15.64c5.721,3.63 12.547,5.109 19.258,4.174c6.712,-0.935 12.872,-4.224 17.38,-9.279c-1.627,3.803 -4.063,7.207 -7.138,9.977c-3.075,2.769 -6.716,4.838 -10.67,6.062c-3.955,1.225 -8.129,1.575 -12.233,1.028c-4.103,-0.547 -8.039,-1.979 -11.534,-4.197c-3.495,-2.217 -6.465,-5.168 -8.706,-8.646c-2.24,-3.478 -3.696,-7.402 -4.268,-11.498c-0.572,-4.096 -0.245,-8.268 0.957,-12.226c1.202,-3.958 3.251,-7.607 6.006,-10.696z" fill="black"/><path id="Vector_7" data-node-id="2437:69178" d="M134.501,164.469h0.077l1.385,80.407h-2.924z" fill="#3F3D56"/><path id="Path 438" data-node-id="2437:69179" d="M141.382,239.603c4.117,1.166 4.166,-4.573 4.821,-7.156c-2.327,1.563 -6.251,3.791 -4.806,7.086" fill="#F6CF57"/><path id="Path 439" data-node-id="2437:69180" d="M141.37,243.33c-0.545,-2.778 -0.579,-6.296 2.444,-7.938c0.145,-0.082 0.278,0.124 0.134,0.206c-2.919,1.592 -2.833,4.991 -2.323,7.669c0.008,0.03 0.003,0.061 -0.015,0.088c-0.017,0.027 -0.045,0.046 -0.078,0.054c-0.034,0.009 -0.069,0.005 -0.099,-0.01c-0.03,-0.015 -0.053,-0.039 -0.063,-0.069z" fill="#3F3D56"/><path id="Path 442" data-node-id="2437:69181" d="M135.234,239.628c1.591,2.379 3.807,-0.807 5.117,-1.975c-1.747,-0.103 -4.539,-0.505 -5.082,1.942" fill="#F6CF57"/><path id="Path 443" data-node-id="2437:69182" d="M133.055,242.502c0.994,-2.101 2.581,-4.477 5.001,-4.177c0.157,0.015 0.118,0.282 -0.039,0.267c-2.298,-0.262 -3.794,2.02 -4.738,4.021c-0.077,0.15 -0.302,0.041 -0.224,-0.111z" fill="#3F3D56"/><path id="Vector_8" data-node-id="2437:69183" d="M116.234,244.143h0.991l0.471,-3.655h-1.462z" fill="#FFB6B6"/><path id="Vector_9" data-node-id="2437:69184" d="M115.5,244.145h2.232c0.378,0 0.739,0.149 1.006,0.414c0.267,0.266 0.417,0.626 0.417,1.001v0.046h-3.655z" fill="#2F2E41"/><path id="Vector_10" data-node-id="2437:69185" d="M121.344,244.143h0.99l0.472,-3.655h-1.462z" fill="#FFB6B6"/><path id="Vector_11" data-node-id="2437:69186" d="M120.617,244.145h2.232c0.378,0 0.74,0.149 1.006,0.414c0.267,0.266 0.417,0.626 0.417,1.001v0.046h-3.655z" fill="#2F2E41"/><path id="Vector_12" data-node-id="2437:69187" d="M122.603,224.809c0.081,-0.105 0.14,-0.228 0.175,-0.361c0.034,-0.133 0.042,-0.273 0.023,-0.411c-0.018,-0.137 -0.063,-0.268 -0.131,-0.383c-0.069,-0.115 -0.158,-0.212 -0.263,-0.284l-1.556,-8.466l-1.695,0.757l2.063,8.084c-0.095,0.207 -0.12,0.447 -0.069,0.673c0.051,0.227 0.173,0.424 0.344,0.555c0.17,0.132 0.378,0.187 0.582,0.157c0.204,-0.031 0.392,-0.145 0.527,-0.321z" fill="#FFB6B6"/><path id="Vector_13" data-node-id="2437:69188" d="M114.352,223.517l-0.812,0.84c0,0 -0.871,3.254 0.795,7.267l1.114,11.635l2.004,0.154l0.598,-13.536l2.761,4.493l-0.482,8.994l2.215,-0.051l1.001,-9.967l-2.734,-10.401z" fill="#2F2E41"/><path id="Vector_14" data-node-id="2437:69189" d="M117.152,224.407c-1.267,-0.008 -2.532,-0.088 -3.789,-0.239l-0.051,-0.007l1.254,-5.268l-0.432,-6.778l4.077,-0.134c0.369,-0.012 0.73,0.106 1.013,0.332c0.284,0.226 0.47,0.544 0.523,0.894l0.834,5.407l0.772,4.798l-0.01,0.015c-0.555,0.777 -2.409,0.98 -4.191,0.98z" fill="#F6CF57"/><path id="Vector_15" data-node-id="2437:69190" d="M117.68,213.144l0.896,-0.951c0,0 1.571,-0.91 2.068,1.04c0.498,1.95 1.422,5.116 1.422,5.116l-3.073,0.21z" fill="#F6CF57"/><path id="Vector_16" data-node-id="2437:69191" d="M110.633,225.516c-0.097,-0.112 -0.169,-0.244 -0.21,-0.386c-0.041,-0.143 -0.051,-0.293 -0.028,-0.44c0.022,-0.147 0.076,-0.287 0.158,-0.411c0.081,-0.124 0.189,-0.228 0.315,-0.304l1.867,-9.071l2.034,0.811l-2.475,8.661c0.114,0.222 0.143,0.479 0.082,0.722c-0.061,0.242 -0.208,0.454 -0.412,0.595c-0.205,0.14 -0.454,0.2 -0.699,0.167c-0.245,-0.032 -0.47,-0.155 -0.632,-0.344z" fill="#FFB6B6"/><path id="Vector_17" data-node-id="2437:69192" d="M115.491,213.144l-0.747,-0.951c0,0 -1.309,-0.91 -1.724,1.04c-0.414,1.95 -1.184,5.116 -1.184,5.116l2.56,0.21z" fill="#F6CF57"/><path id="Vector_18" data-node-id="2437:69193" d="M118.768,211.25h-5.063c-0.104,0 -0.204,-0.044 -0.277,-0.122c-0.074,-0.079 -0.115,-0.185 -0.116,-0.296v-2.32c0,-0.825 0.309,-1.616 0.857,-2.199c0.548,-0.583 1.292,-0.911 2.067,-0.911c0.776,0 1.52,0.328 2.068,0.911c0.548,0.583 0.856,1.374 0.856,2.199v2.32c0,0.111 -0.041,0.217 -0.115,0.296c-0.074,0.078 -0.173,0.122 -0.277,0.122z" fill="#2F2E41"/><path id="Vector_19" data-node-id="2437:69194" d="M116.959,211.251c1.211,0 2.192,-0.982 2.192,-2.193c0,-1.211 -0.981,-2.193 -2.192,-2.193c-1.212,0 -2.193,0.982 -2.193,2.193c0,1.211 0.981,2.193 2.193,2.193z" fill="#FFB6B6"/><path id="Vector_20" data-node-id="2437:69195" d="M119.882,208.326h-3.128l-0.032,-0.414l-0.161,0.414h-0.482l-0.063,-0.82l-0.318,0.82h-0.932v-0.041c0,-0.57 0.247,-1.118 0.685,-1.521c0.438,-0.404 1.033,-0.631 1.652,-0.631h0.442c0.619,0 1.214,0.227 1.652,0.631c0.438,0.403 0.685,0.95 0.685,1.521z" fill="#2F2E41"/><path id="Vector_21" data-node-id="2437:69196" d="M117.152,211.249c-0.031,0 -0.062,-0.002 -0.093,-0.006l-3.036,-0.352v-3.297h3.342l-0.082,0.063c-1.152,0.882 -0.284,2.313 0.335,3.087c0.046,0.057 0.066,0.121 0.059,0.185c-0.007,0.064 -0.042,0.125 -0.1,0.177c-0.049,0.044 -0.112,0.08 -0.186,0.105c-0.074,0.025 -0.156,0.038 -0.239,0.038z" fill="#2F2E41"/><g id="Group 22152" data-node-id="2437:69197">
<path id="Vector_22" data-node-id="2437:69198" d="M240.315,154.869c9.661,0 17.495,-7.832 17.495,-17.494c0,-9.662 -7.834,-17.494 -17.495,-17.494c-9.662,0 -17.495,7.832 -17.495,17.494c0,9.662 7.833,17.494 17.495,17.494z" fill="#FF6884"/>
<path id="Vector_23" data-node-id="2437:69199" d="M214.474,246.787l-36.515,-1.257l-1.068,-88.71c-0.026,-2.153 0.836,-4.262 2.364,-5.784l37.927,-21.135c2.969,-2.959 7.642,-3.173 10.871,-0.497l23.017,19.08c1.88,1.557 2.94,3.845 2.91,6.279l-0.79,66.714l10,13.846l0.02,0.029l1.7,14.639z" fill="#F1F2F2"/>
<path id="Vector_24" data-node-id="2437:69200" d="M217.352,150.675v-4.189c0,-1.106 0.944,-2.006 2.104,-2.006h6.178c1.161,0 2.105,0.9 2.105,2.006v4.189c0,1.106 -0.944,2.006 -2.105,2.006h-6.178c-1.16,0 -2.104,-0.9 -2.104,-2.006z" fill="#0D1240"/>
<path id="Vector_25" data-node-id="2437:69201" d="M205.328,182.421v-15.2c0,-1.085 0.889,-1.967 1.982,-1.967h8.61c1.093,0 1.982,0.882 1.982,1.967v15.2c0,1.085 -0.889,1.967 -1.982,1.967h-8.61c-1.093,0 -1.982,-0.882 -1.982,-1.967z" fill="#3F3D56"/>
<path id="Vector_26" data-node-id="2437:69202" d="M185.094,200.406v-15.635c0,-1.115 0.85,-2.023 1.895,-2.023h8.237c1.045,0 1.895,0.908 1.895,2.023v15.635c0,1.116 -0.85,2.023 -1.895,2.023h-8.237c-1.045,0 -1.895,-0.907 -1.895,-2.023z" fill="#3F3D56"/>
<path id="Vector_27" data-node-id="2437:69203" d="M224.914,218.284c-1.164,-0.038 -2.102,-0.899 -2.137,-1.96l-0.487,-15.093c-0.021,-0.644 0.285,-1.243 0.84,-1.643c0.554,-0.4 1.264,-0.534 1.947,-0.368l0.487,0.118c0.969,0.236 1.645,1.038 1.645,1.952v14.975c0,0.553 -0.24,1.069 -0.677,1.453c-0.417,0.367 -0.96,0.567 -1.537,0.567c-0.027,0 -0.054,-0.001 -0.081,-0.001z" fill="#3F3D56"/>
<path id="Vector_28" data-node-id="2437:69204" d="M206.961,215.797v-15.062c0,-1.063 0.834,-1.916 1.9,-1.942l7.689,-0.187c1.066,-0.015 1.963,0.82 1.994,1.886l0.443,15.248c0.016,0.53 -0.18,1.031 -0.55,1.411c-0.369,0.38 -0.865,0.589 -1.396,0.589h-8.133c-1.074,0 -1.947,-0.872 -1.947,-1.943z" fill="#3F3D56"/>
<path id="Vector_29" data-node-id="2437:69205" d="M252.99,226.574l5.95,10.877l0.69,12.232l4.74,0.31l-1.63,-14.493l-9.77,-13.936c-0.84,1.559 -0.84,3.456 0.02,5.01z" fill="#CCCCCC"/>
<path id="Vector_30" data-node-id="2437:69206" d="M259.52,246.057l-19.809,0.271l0.004,0.278l19.805,-0.271z" fill="#3F3D56"/>
<path id="Vector_31" data-node-id="2437:69207" d="M258.31,243.605l-18.779,0.147l0.002,0.278l18.787,-0.147z" fill="#3F3D56"/>
<path id="Vector_32" data-node-id="2437:69208" d="M257.33,241.096l-17.963,0.351l0.006,0.278l17.967,-0.351z" fill="#3F3D56"/>
<path id="Vector_33" data-node-id="2437:69209" d="M256.78,238.605l-17.257,0.573l0.01,0.278l17.257,-0.573z" fill="#3F3D56"/>
<path id="Vector_34" data-node-id="2437:69210" d="M255.94,236.382l-16.573,0.583l0.01,0.278l16.573,-0.583z" fill="#3F3D56"/>
<path id="Vector_35" data-node-id="2437:69211" d="M255.07,234.141h-16.398v0.546h16.398z" fill="#3F3D56"/>
<path id="Vector_36" data-node-id="2437:69212" d="M254,232.478l-15.695,0.184l0.003,0.278l15.692,-0.184z" fill="#3F3D56"/>
<path id="Vector_37" data-node-id="2437:69213" d="M253.17,230.532l-15.201,0.505l0.009,0.278l15.202,-0.505z" fill="#3F3D56"/>
<path id="Vector_38" data-node-id="2437:69214" d="M252.62,228.599l-15.018,0.264l0.004,0.278l15.014,-0.264z" fill="#3F3D56"/>
<path id="Vector_39" data-node-id="2437:69215" d="M251.5,226.67l-14.375,0.449l0.009,0.278l14.376,-0.449z" fill="#3F3D56"/>
<path id="Vector_40" data-node-id="2437:69216" d="M250.94,224.976l-14.245,0.139l0.003,0.278l14.252,-0.139z" fill="#3F3D56"/>
<path id="Vector_41" data-node-id="2437:69217" d="M235.391,219.081v-18.537c0,-1.069 0.925,-1.939 2.062,-1.939h9.543c1.137,0 2.062,0.87 2.062,1.939v18.537c0,1.069 -0.925,1.939 -2.062,1.939h-9.543c-1.137,0 -2.062,-0.87 -2.062,-1.939z" fill="#0D1240"/>
<path id="Vector_42" data-node-id="2437:69218" d="M214.698,246.709l-32.748,-0.994l-0.13,-0.008v-12.081c0,-1.527 17.922,-2.771 19.498,-2.771h15.912c1.576,0 2.859,1.244 2.859,2.771v13.084h-0.139z" fill="#CCCCCC"/>
<path id="Vector_43" data-node-id="2437:69219" d="M237.023,185.126v-14.593c0,-1.102 0.835,-1.998 1.862,-1.998h2.838c1.026,0 1.861,0.896 1.861,1.998v14.593c0,1.101 -0.835,1.997 -1.861,1.997h-2.838c-1.027,0 -1.862,-0.896 -1.862,-1.997z" fill="#3F3D56"/>
<path id="Vector_44" data-node-id="2437:69220" d="M239.771,248.352l-0.812,-12.415l-2.436,-11.85l-0.677,-3.245c-1.391,-0.985 -3.263,0.111 -3.179,1.862l0.066,1.383l2.436,11.85l0.812,12.415" fill="#CCCCCC"/>
</g><path id="Rectangle 696" data-node-id="2437:69221" d="M266.43,243.867c11.05,-0.052 20.04,8.861 20.09,19.906l1.05,224.047l-287.982,1.35l-1.046,-224.053c-0.051,-11.045 8.861,-20.041 19.907,-20.093z" fill="#0D1240"/><circle id="Ellipse 36" data-node-id="2437:69222" cx="35.46100000000001" cy="283.98199999999997" r="8.4062" fill="white"/><path id="Vector_45" data-node-id="2437:69228" d="M36.003,296.409c-6.56,0 -11.878,-5.318 -11.878,-11.878c0,-6.561 5.318,-11.879 11.878,-11.879c6.561,0 11.879,5.318 11.879,11.879c0,6.56 -5.318,11.878 -11.879,11.878zM34.819,289.282l8.398,-8.399l-1.68,-1.68l-6.718,6.72l-3.36,-3.361l-1.68,1.68z" fill="#F6CF57"/><path id="Rectangle 1" data-node-id="2437:69234" d="M287.66,487.56l2.37,508l-297.483,1.39l-2.371,-508z" fill="#0D1240"/><path id="Line 99" data-node-id="2437:69236" opacity="0.8" d="M35.82,296.777v271.193" stroke="#A9AEB1" stroke-width="0.730974" stroke-dasharray="2.19 1.46"/><g id="Group 22154" data-node-id="2437:69238">
<circle id="Ellipse 29" data-node-id="2437:69239" cx="35.277000000000044" cy="491.21000000000004" r="11.8783" fill="#F6CF57"/>
<circle id="Ellipse 35" data-node-id="2437:69240" cx="35.09000000000003" cy="491.03" r="5.84779" fill="#F8F8F8"/>
</g><g id="Group 22149" data-node-id="2437:69254">
<circle id="Ellipse 29_2" data-node-id="2437:69255" cx="36.00300000000004" cy="372.794" r="11.8783" fill="#F6CF57"/>
<circle id="Ellipse 35_2" data-node-id="2437:69256" cx="35.81700000000001" cy="372.611" r="5.84779" fill="white"/>
</g></g></g></g><defs><clipPath id="clip0_2437_9161">
<rect width="1440" height="11114" fill="white" x="-750" y="-614"/>
</clipPath><clipPath id="clip2_2437_9161">
<rect x="0" y="0" width="285" height="503" rx="10" fill="white"/>
</clipPath></defs></svg>